# xmcd CD database file
#
# Track frame offsets:
#	150
#	13168
#	29962
#	42038
#	55352
#	69936
#	84233
#	99158
#	116972
#	132977
#	145350
#	158588
#	170596
#	187286
#	202880
#	214653
#	235001
#	252629
#	266402
#	282550
#	296599
#	311033
#	322179
#
# Disc length: 4435 seconds
#
# Revision: 1
# Processed by: cddbd v1.5.2PL0 Copyright (c) Steve Scherf et al.
# Submitted via: CDex 1.51
#
DISCID=64115117
DTITLE=Various Artist - Top DJ's Picks Classic Country Volume 1 Disc 1 of 4
DYEAR=1988
DGENRE=Country
TTITLE0=(I Never Promised You A) Rose Garden/Lynn Anderson
TTITLE1=Silver Wings/Merle Haggard,Willie Nelson
TTITLE2=Stand By Your Man/Tammy Wynette
TTITLE3=Behind Closed Doors/Charlie Rich
TTITLE4=Tulsa Time/Don Williams
TTITLE5=Man Of Constant Sorrow/Soggy Bottom Boys
TTITLE6=He Stopped Loving Her Today/George Jones
TTITLE7=Old School/John Conlee
TTITLE8=Whiskey River/Willie Nelson
TTITLE9=The Most Beautiful Girl/Charlie Rich
TTITLE10=Delta Dawn/Tanya Tucker
TTITLE11=It's A Cheating Situation/Moe Bandy,Janie Fricke
TTITLE12=Elvira/The Oak Ridge Boys
TTITLE13=Goodbye Time/Conway Twitty
TTITLE14=Dear John/Hank Williams
TTITLE15=Up Against The Wall Redneck Mothers/Jerry Jeff Walker
TTITLE16=Just You And I/Eddie Rabbitt, Crystal Gayle
TTITLE17=Gonna Take Alot Of River/The Oak Ridge Boys
TTITLE18=Somebody Should Leave/Reba McEntire
TTITLE19=Why You Been Gone So Long/Jessi Colter
TTITLE20=Only Hell My Momma Ever Raised/Johnny Paycheck
TTITLE21=Desperado Love/Conway Twitty
TTITLE22=Put Another Log On The Fire/Tompall Glaser
EXTD=YEAR: 1988
EXTT0=
EXTT1=
EXTT2=
EXTT3=
EXTT4=
EXTT5=
EXTT6=
EXTT7=
EXTT8=
EXTT9=
EXTT10=
EXTT11=
EXTT12=
EXTT13=
EXTT14=
EXTT15=
EXTT16=
EXTT17=
EXTT18=
EXTT19=
EXTT20=
EXTT21=
EXTT22=
PLAYORDER=
